<svg xmlns="http://www.w3.org/2000/svg" width="620" height="90" viewBox="0 0 620 90">
  <defs>
    <style>
      
      .label { font-family: monospace; font-size: 11px; fill: #57606a; }
    </style>
  </defs>
  <text class="label" x="14" y="20">top languages</text>
  <rect x="14.0" y="36" width="294.9" height="8" rx="2" fill="#3178c6"/>  <rect x="308.9" y="36" width="132.1" height="8" rx="2" fill="#e34c26"/>  <rect x="441.0" y="36" width="76.8" height="8" rx="2" fill="#f1e05a"/>  <rect x="517.8" y="36" width="56.0" height="8" rx="2" fill="#663399"/>  <rect x="573.8" y="36" width="23.3" height="8" rx="2" fill="#3572A5"/>  <rect x="597.1" y="36" width="7.7" height="8" rx="2" fill="#3D6117"/>
  <circle cx="18" cy="60" r="4" fill="#3178c6"/>
  <text x="26" y="64" style="font-family:monospace;font-size:11px;fill:#57606a">TypeScript 49.8%</text>  <circle cx="153.0" cy="60" r="4" fill="#e34c26"/>
  <text x="161.0" y="64" style="font-family:monospace;font-size:11px;fill:#57606a">HTML 22.3%</text>  <circle cx="243.0" cy="60" r="4" fill="#f1e05a"/>
  <text x="251.0" y="64" style="font-family:monospace;font-size:11px;fill:#57606a">JavaScript 13.0%</text>  <circle cx="378.0" cy="60" r="4" fill="#663399"/>
  <text x="386.0" y="64" style="font-family:monospace;font-size:11px;fill:#57606a">CSS 9.5%</text>  <circle cx="460.5" cy="60" r="4" fill="#3572A5"/>
  <text x="468.5" y="64" style="font-family:monospace;font-size:11px;fill:#57606a">Python 3.9%</text>  <circle cx="18" cy="78" r="4" fill="#3D6117"/>
  <text x="26" y="82" style="font-family:monospace;font-size:11px;fill:#57606a">TeX 1.3%</text>
</svg>
